<?xml version="1.0" encoding="UTF-8"?>
<svg version="1.1" xmlns="http://www.w3.org/2000/svg" width="183" height="172">
<path d="M0 0 C0.54785156 0.48726562 1.09570312 0.97453125 1.66015625 1.4765625 C1.66015625 2.4665625 1.66015625 3.4565625 1.66015625 4.4765625 C0.85578125 4.6003125 0.05140625 4.7240625 -0.77734375 4.8515625 C-1.62296875 5.0578125 -2.46859375 5.2640625 -3.33984375 5.4765625 C-3.66984375 6.1365625 -3.99984375 6.7965625 -4.33984375 7.4765625 C-8.69177127 7.82535086 -11.21744614 6.78156735 -15.02734375 4.7265625 C-22.61263509 0.7848202 -29.72939991 -2.75464787 -38.33984375 -3.5234375 C-39.44392578 -3.67619141 -39.44392578 -3.67619141 -40.5703125 -3.83203125 C-58.66925049 -6.1627371 -75.66217316 -1.03752818 -90.33984375 9.4765625 C-91.01273438 9.93546875 -91.685625 10.394375 -92.37890625 10.8671875 C-102.96884344 18.89426318 -111.43540996 34.51342794 -113.33984375 47.4765625 C-115.43319572 64.84735817 -112.94559294 81.53428599 -103.33984375 96.4765625 C-101.02984375 96.4765625 -98.71984375 96.4765625 -96.33984375 96.4765625 C-96.13101563 95.703125 -95.9221875 94.9296875 -95.70703125 94.1328125 C-93.82237101 89.09269255 -91.15643574 84.62510845 -88.46484375 79.9765625 C-87.29558719 77.93172543 -86.12765368 75.88613135 -84.9609375 73.83984375 C-84.36394043 72.79393066 -83.76694336 71.74801758 -83.15185547 70.67041016 C-80.23301507 65.52566883 -77.37140199 60.35043848 -74.52734375 55.1640625 C-73.74544678 53.75060547 -73.74544678 53.75060547 -72.94775391 52.30859375 C-72.47257324 51.43976563 -71.99739258 50.5709375 -71.5078125 49.67578125 C-71.08781982 48.91096436 -70.66782715 48.14614746 -70.23510742 47.3581543 C-69.19662807 45.52285002 -69.19662807 45.52285002 -69.33984375 43.4765625 C-68.67984375 43.4765625 -68.01984375 43.4765625 -67.33984375 43.4765625 C-67.09363281 42.64511719 -66.84742188 41.81367187 -66.59375 40.95703125 C-65.16540484 36.99237226 -63.31150553 33.46802057 -61.27734375 29.7890625 C-58.49201776 24.77946776 -58.49201776 24.77946776 -56.33984375 19.4765625 C-55.67984375 19.4765625 -55.01984375 19.4765625 -54.33984375 19.4765625 C-53.87578125 18.0225 -53.87578125 18.0225 -53.40234375 16.5390625 C-52.33984375 13.4765625 -52.33984375 13.4765625 -51.33984375 12.4765625 C-49.34026011 12.43575467 -47.33939121 12.43401894 -45.33984375 12.4765625 C-44.94716309 13.21181152 -44.55448242 13.94706055 -44.14990234 14.70458984 C-42.66461102 17.4826913 -41.17703102 20.25955225 -39.68798828 23.03564453 C-38.73818936 24.80799887 -37.79093723 26.58171729 -36.84375 28.35546875 C-33.18307645 35.17588158 -29.40213049 41.88688178 -25.33984375 48.4765625 C-21.1152997 45.17935739 -17.67192033 41.67909722 -14.2109375 37.59375 C-11.65167902 34.69788759 -8.86318513 32.06907165 -6.0390625 29.43359375 C-4.1334241 27.23882401 -3.27077645 25.21265405 -2.33984375 22.4765625 C-4.64984375 20.4965625 -6.95984375 18.5165625 -9.33984375 16.4765625 C-7.19391381 13.25766759 -6.5567278 12.89664793 -3.12109375 11.57421875 C-2.2703125 11.24099609 -1.41953125 10.90777344 -0.54296875 10.56445312 C0.79507813 10.05688477 0.79507813 10.05688477 2.16015625 9.5390625 C3.02125 9.20455078 3.88234375 8.87003906 4.76953125 8.52539062 C6.51136023 7.848737 8.25486462 7.17638074 10 6.50830078 C13.56894761 5.12408891 17.10843063 3.6699114 20.64648438 2.20874023 C22.66015625 1.4765625 22.66015625 1.4765625 24.66015625 1.4765625 C23.96029245 9.56881077 22.81402145 17.57269256 21.59765625 25.6015625 C21.41138672 26.84421875 21.22511719 28.086875 21.03320312 29.3671875 C20.57768454 32.4039781 20.1199555 35.44041761 19.66015625 38.4765625 C16.30764924 37.90080586 14.72196996 36.88349987 12.41015625 34.4140625 C11.62898438 33.59228516 11.62898438 33.59228516 10.83203125 32.75390625 C10.4453125 32.33238281 10.05859375 31.91085938 9.66015625 31.4765625 C9.23831055 31.92870117 8.81646484 32.38083984 8.38183594 32.84667969 C-0.3715284 42.21748155 -9.19442985 51.48703634 -18.33984375 60.4765625 C-16.96443177 65.09630029 -15.01688173 69.11617078 -12.609375 73.265625 C-11.8817605 74.54925197 -11.15455893 75.83311308 -10.42773438 77.1171875 C-9.28696295 79.11914642 -8.14244171 81.11871577 -6.99047852 83.11425781 C-5.8733586 85.05455621 -4.77171153 87.00299191 -3.671875 88.953125 C-3.32300735 89.54799713 -2.97413971 90.14286926 -2.61470032 90.75576782 C-0.27446702 94.93702668 -0.27446702 94.93702668 -0.6315918 97.88427734 C-0.86531494 98.40973145 -1.09903809 98.93518555 -1.33984375 99.4765625 C-3.58977734 99.50363389 -5.8398047 99.52299079 -8.08984375 99.5390625 C-9.3428125 99.55066406 -10.59578125 99.56226562 -11.88671875 99.57421875 C-17.09130894 99.42703011 -17.09130894 99.42703011 -19.33984375 98.4765625 C-20.46484375 95.4765625 -20.46484375 95.4765625 -21.33984375 92.4765625 C-21.99984375 92.1465625 -22.65984375 91.8165625 -23.33984375 91.4765625 C-23.33984375 90.4865625 -23.33984375 89.4965625 -23.33984375 88.4765625 C-23.99984375 88.4765625 -24.65984375 88.4765625 -25.33984375 88.4765625 C-26.17803533 86.85406309 -27.01025535 85.22847753 -27.83984375 83.6015625 C-28.5359375 82.24417969 -28.5359375 82.24417969 -29.24609375 80.859375 C-30.33984375 78.4765625 -30.33984375 78.4765625 -30.33984375 76.4765625 C-30.99984375 76.1465625 -31.65984375 75.8165625 -32.33984375 75.4765625 C-32.66984375 74.8165625 -32.99984375 74.1565625 -33.33984375 73.4765625 C-33.9726123 73.90888184 -34.60538086 74.34120117 -35.25732422 74.78662109 C-53.64598944 87.30847397 -72.06955165 98.29078456 -92.33984375 107.4765625 C-92.57524168 109.59733248 -92.57524168 109.59733248 -90.828125 110.9921875 C-75.00893549 123.60209799 -57.11906482 127.19311772 -37.33984375 125.4765625 C-22.25939834 123.20065571 -8.74728649 115.39023516 0.66015625 103.4765625 C1.49289063 102.68636719 2.325625 101.89617187 3.18359375 101.08203125 C11.3945525 92.44368821 15.29575428 79.07397923 16.66015625 67.4765625 C16.84578125 66.6515625 17.03140625 65.8265625 17.22265625 64.9765625 C18.25694464 59.06634315 17.44414488 53.35647721 16.66015625 47.4765625 C16.66015625 46.4865625 16.66015625 45.4965625 16.66015625 44.4765625 C18.32294952 43.470135 19.98999109 42.47070843 21.66015625 41.4765625 C22.98809231 39.40955595 22.98809231 39.40955595 23.66015625 37.4765625 C24.32015625 37.4765625 24.98015625 37.4765625 25.66015625 37.4765625 C32.11615666 56.729278 29.21019767 77.64766414 20.62890625 95.73046875 C17.91936134 101.09629634 14.4418618 105.82155588 10.66015625 110.4765625 C10.03367188 111.30414063 9.4071875 112.13171875 8.76171875 112.984375 C6.45232997 115.7230182 3.99579539 117.89862706 1.22265625 120.1640625 C-0.16759766 121.31455078 -0.16759766 121.31455078 -1.5859375 122.48828125 C-4.14916176 124.33889281 -6.41785738 125.34796459 -9.33984375 126.4765625 C-9.66984375 127.1365625 -9.99984375 127.7965625 -10.33984375 128.4765625 C-15.64753606 131.4765625 -15.64753606 131.4765625 -19.33984375 131.4765625 C-19.66984375 132.1365625 -19.99984375 132.7965625 -20.33984375 133.4765625 C-22.66796875 134.29296875 -22.66796875 134.29296875 -25.58984375 135.0390625 C-26.54375 135.28785156 -27.49765625 135.53664062 -28.48046875 135.79296875 C-47.50878751 140.34208867 -66.95262094 138.88877063 -84.33984375 129.4765625 C-86.234092 128.53586391 -88.12988852 127.5982755 -90.02734375 126.6640625 C-91.46588876 125.93695966 -92.90380371 125.20860026 -94.33984375 124.4765625 C-94.33984375 123.8165625 -94.33984375 123.1565625 -94.33984375 122.4765625 C-94.99984375 122.4765625 -95.65984375 122.4765625 -96.33984375 122.4765625 C-96.33984375 121.8165625 -96.33984375 121.1565625 -96.33984375 120.4765625 C-96.99984375 120.4765625 -97.65984375 120.4765625 -98.33984375 120.4765625 C-98.33984375 119.8165625 -98.33984375 119.1565625 -98.33984375 118.4765625 C-98.9225 118.22519531 -99.50515625 117.97382813 -100.10546875 117.71484375 C-112.20844048 111.0074276 -119.69459768 93.48649724 -123.46484375 80.9140625 C-125.45722058 73.77344478 -126.1675146 66.8694831 -126.33984375 59.4765625 C-126.37980469 58.17976563 -126.41976562 56.88296875 -126.4609375 55.546875 C-126.44238294 51.46780088 -125.69257317 47.65913715 -124.65234375 43.7265625 C-124.47155273 43.03336914 -124.29076172 42.34017578 -124.10449219 41.62597656 C-121.10282807 30.53464868 -116.58897253 20.50196787 -109.33984375 11.4765625 C-108.67984375 11.4765625 -108.01984375 11.4765625 -107.33984375 11.4765625 C-107.0975 10.90421875 -106.85515625 10.331875 -106.60546875 9.7421875 C-99.70003742 -2.6193871 -82.96607878 -9.56746831 -70.01171875 -13.55859375 C-44.44487476 -20.27668999 -21.82374675 -14.20911725 0 0 Z M-48.33984375 44.4765625 C-52.53256743 50.78902751 -56.15051562 57.41611809 -59.75341797 64.07861328 C-60.72649429 65.87304706 -61.71084915 67.66101244 -62.6953125 69.44921875 C-63.61376953 71.14498047 -63.61376953 71.14498047 -64.55078125 72.875 C-65.11071777 73.90286621 -65.6706543 74.93073242 -66.24755859 75.98974609 C-66.6080127 76.81039551 -66.9684668 77.63104492 -67.33984375 78.4765625 C-67.00984375 79.1365625 -66.67984375 79.7965625 -66.33984375 80.4765625 C-58.70086233 76.26428728 -51.72932009 71.71332977 -44.8359375 66.39453125 C-43.05190461 65.0237016 -41.21185471 63.72456981 -39.33984375 62.4765625 C-39.9425116 57.96928603 -41.70584169 54.6177662 -43.90234375 50.6640625 C-44.23169922 50.06658203 -44.56105469 49.46910156 -44.90039062 48.85351562 C-45.70757642 47.39122252 -46.52289292 45.9334226 -47.33984375 44.4765625 C-47.66984375 44.4765625 -47.99984375 44.4765625 -48.33984375 44.4765625 Z " fill="#0C3A73" transform="translate(138.33984375,25.5234375)"/>
<path d="M0 0 C-0.6998638 8.09224827 -1.8461348 16.09613006 -3.0625 24.125 C-3.24876953 25.36765625 -3.43503906 26.6103125 -3.62695312 27.890625 C-4.08247171 30.9274156 -4.54020075 33.96385511 -5 37 C-8.35250701 36.42424336 -9.93818629 35.40693737 -12.25 32.9375 C-13.03117187 32.11572266 -13.03117187 32.11572266 -13.828125 31.27734375 C-14.21484375 30.85582031 -14.6015625 30.43429688 -15 30 C-15.4218457 30.45213867 -15.84369141 30.90427734 -16.27832031 31.37011719 C-25.03168465 40.74091905 -33.8545861 50.01047384 -43 59 C-41.62458802 63.61973779 -39.67703798 67.63960828 -37.26953125 71.7890625 C-36.54191675 73.07268947 -35.81471518 74.35655058 -35.08789062 75.640625 C-33.9471192 77.64258392 -32.80259796 79.64215327 -31.65063477 81.63769531 C-30.53351485 83.57799371 -29.43186778 85.52642941 -28.33203125 87.4765625 C-27.9831636 88.07143463 -27.63429596 88.66630676 -27.27485657 89.27920532 C-24.93462327 93.46046418 -24.93462327 93.46046418 -25.29174805 96.40771484 C-25.52547119 96.93316895 -25.75919434 97.45862305 -26 98 C-28.24993359 98.02707139 -30.49996095 98.04642829 -32.75 98.0625 C-34.00296875 98.07410156 -35.2559375 98.08570312 -36.546875 98.09765625 C-41.75146519 97.95046761 -41.75146519 97.95046761 -44 97 C-45.125 94 -45.125 94 -46 91 C-46.66 90.67 -47.32 90.34 -48 90 C-48 89.01 -48 88.02 -48 87 C-48.66 87 -49.32 87 -50 87 C-50.83819158 85.37750059 -51.6704116 83.75191503 -52.5 82.125 C-52.9640625 81.22007813 -53.428125 80.31515625 -53.90625 79.3828125 C-55 77 -55 77 -55 75 C-55.66 74.67 -56.32 74.34 -57 74 C-58.95926129 65.60316591 -57.22692905 57.40954449 -52.79296875 49.9765625 C-50.97757907 47.70588462 -48.90065148 45.92156696 -46.625 44.125 C-43.65769101 41.72289272 -41.37097657 39.05488359 -38.90625 36.15234375 C-36.33271277 33.24656708 -33.53571979 30.60406071 -30.69921875 27.95703125 C-28.79358035 25.76226151 -27.9309327 23.73609155 -27 21 C-29.31 19.02 -31.62 17.04 -34 15 C-31.85407006 11.78110509 -31.21688405 11.42008543 -27.78125 10.09765625 C-26.93046875 9.76443359 -26.0796875 9.43121094 -25.203125 9.08789062 C-24.31109375 8.74951172 -23.4190625 8.41113281 -22.5 8.0625 C-21.63890625 7.72798828 -20.7778125 7.39347656 -19.890625 7.04882812 C-18.14879602 6.3721745 -16.40529163 5.69981824 -14.66015625 5.03173828 C-11.09120864 3.64752641 -7.55172562 2.1933489 -4.01367188 0.73217773 C-2 0 -2 0 0 0 Z " fill="#E9582E" transform="translate(163,27)"/>
<path d="M0 0 C0.54785156 0.48726562 1.09570312 0.97453125 1.66015625 1.4765625 C1.66015625 2.4665625 1.66015625 3.4565625 1.66015625 4.4765625 C0.85578125 4.6003125 0.05140625 4.7240625 -0.77734375 4.8515625 C-1.62296875 5.0578125 -2.46859375 5.2640625 -3.33984375 5.4765625 C-3.66984375 6.1365625 -3.99984375 6.7965625 -4.33984375 7.4765625 C-8.69177127 7.82535086 -11.21744614 6.78156735 -15.02734375 4.7265625 C-22.61263509 0.7848202 -29.72939991 -2.75464787 -38.33984375 -3.5234375 C-39.44392578 -3.67619141 -39.44392578 -3.67619141 -40.5703125 -3.83203125 C-58.66925049 -6.1627371 -75.66217316 -1.03752818 -90.33984375 9.4765625 C-91.01273438 9.93546875 -91.685625 10.394375 -92.37890625 10.8671875 C-100.45258713 16.98696388 -106.24637723 27.39974544 -110.33984375 36.4765625 C-110.99984375 36.4765625 -111.65984375 36.4765625 -112.33984375 36.4765625 C-115.80012404 48.01083012 -116.04842082 59.51856207 -116.33984375 71.4765625 C-117.26796875 71.198125 -117.26796875 71.198125 -118.21484375 70.9140625 C-120.38144553 70.23970074 -120.38144553 70.23970074 -122.33984375 71.4765625 C-123.35748405 66.46047725 -123.45840809 61.69047944 -123.40234375 56.6015625 C-123.39783203 55.8178125 -123.39332031 55.0340625 -123.38867188 54.2265625 C-123.37698468 52.30986236 -123.35905283 50.39320202 -123.33984375 48.4765625 C-123.99984375 48.1465625 -124.65984375 47.8165625 -125.33984375 47.4765625 C-122.43938732 34.17690863 -117.96039596 22.20943546 -109.33984375 11.4765625 C-108.67984375 11.4765625 -108.01984375 11.4765625 -107.33984375 11.4765625 C-107.0975 10.90421875 -106.85515625 10.331875 -106.60546875 9.7421875 C-99.70003742 -2.6193871 -82.96607878 -9.56746831 -70.01171875 -13.55859375 C-44.44487476 -20.27668999 -21.82374675 -14.20911725 0 0 Z " fill="#05569E" transform="translate(138.33984375,25.5234375)"/>
<path d="M0 0 C1.4540625 0.0309375 1.4540625 0.0309375 2.9375 0.0625 C3.53437622 1.17322876 3.53437622 1.17322876 4.14331055 2.30639648 C5.6431365 5.09670449 7.1435296 7.88670661 8.64428711 10.67651367 C9.28936552 11.87593877 9.93422839 13.07547981 10.57885742 14.27514648 C11.51422066 16.01577971 12.45046629 17.75593866 13.38671875 19.49609375 C13.98790527 20.61870605 14.5890918 21.74131836 15.20849609 22.89794922 C17.11247128 26.38274536 19.1191777 29.79701713 21.19848633 33.17993164 C22.39786805 36.23524464 21.25011522 38.31547143 20.03515625 41.21875 C19.69355469 41.9921875 19.35195312 42.765625 19 43.5625 C16.66208207 49.25851823 15.73143689 54.98261487 14.9375 61.0625 C12.2975 61.7225 9.6575 62.3825 6.9375 63.0625 C6.8115 56.6365 6.8115 56.6365 7.5 53.5 C8.53598293 47.72809511 6.33136049 43.5251808 3.375 38.6875 C2.73433594 37.62789062 2.09367187 36.56828125 1.43359375 35.4765625 C0.93988281 34.67992187 0.44617188 33.88328125 -0.0625 33.0625 C-1.36697601 35.45055603 -2.67096674 37.83887232 -3.97387695 40.2277832 C-5.07734347 42.2475691 -6.18396965 44.26563191 -7.29370117 46.28198242 C-9.67054053 50.61148781 -12.03797885 54.92749599 -14.171875 59.3828125 C-14.73390625 60.53523438 -15.2959375 61.68765625 -15.875 62.875 C-16.33519531 63.87144531 -16.79539062 64.86789063 -17.26953125 65.89453125 C-19.0625 68.0625 -19.0625 68.0625 -22.57421875 69.01171875 C-26.0625 69.0625 -26.0625 69.0625 -29.0625 67.0625 C-29.0625 67.7225 -29.0625 68.3825 -29.0625 69.0625 C-29.92875 68.7840625 -29.92875 68.7840625 -30.8125 68.5 C-33.28738597 68.01877217 -34.67235476 68.38462267 -37.0625 69.0625 C-34.53668335 60.8401607 -34.53668335 60.8401607 -32.5 57.5 C-30.85047041 54.98359977 -30.85047041 54.98359977 -30.22265625 51.40625 C-29.14582474 46.9168165 -27.28560749 43.14834128 -25.0625 39.125 C-24.70671875 38.45404297 -24.3509375 37.78308594 -23.984375 37.09179688 C-21.33161408 32.19705704 -21.33161408 32.19705704 -19.0625 31.0625 C-18.38858482 29.06493078 -17.72367344 27.0643227 -17.0625 25.0625 C-15.80253967 22.44799602 -14.40410408 19.91444405 -13 17.375 C-10.21467401 12.36540526 -10.21467401 12.36540526 -8.0625 7.0625 C-7.4025 7.0625 -6.7425 7.0625 -6.0625 7.0625 C-5.753125 6.093125 -5.44375 5.12375 -5.125 4.125 C-3.72021812 0.07592282 -3.72021812 0.07592282 0 0 Z " fill="#0B6196" transform="translate(90.0625,37.9375)"/>
<path d="M0 0 C0.66 0 1.32 0 2 0 C8.45600041 19.2527155 5.55004142 40.17110164 -3.03125 58.25390625 C-5.74079491 63.61973384 -9.21829445 68.34499338 -13 73 C-13.62648437 73.82757813 -14.25296875 74.65515625 -14.8984375 75.5078125 C-17.20782628 78.2464557 -19.66436086 80.42206456 -22.4375 82.6875 C-23.36433594 83.45449219 -24.29117188 84.22148437 -25.24609375 85.01171875 C-27.80931801 86.86233031 -30.07801363 87.87140209 -33 89 C-33.33 89.66 -33.66 90.32 -34 91 C-39.30769231 94 -39.30769231 94 -43 94 C-43.495 94.99 -43.495 94.99 -44 96 C-46.28515625 96.8515625 -46.28515625 96.8515625 -49.0625 97.625 C-50.44115234 98.01558594 -50.44115234 98.01558594 -51.84765625 98.4140625 C-52.55792969 98.60742188 -53.26820312 98.80078125 -54 99 C-54 98.34 -54 97.68 -54 97 C-55.98 97.495 -55.98 97.495 -58 98 C-58.93423645 94.98968256 -59.04449911 94.13349732 -58 91 C-58.33 90.01 -58.66 89.02 -59 88 C-57.87464844 87.65388672 -57.87464844 87.65388672 -56.7265625 87.30078125 C-43.1848484 82.9858522 -31.95928738 77.34612455 -23 66 C-22.16726562 65.20980469 -21.33453125 64.41960937 -20.4765625 63.60546875 C-12.26560375 54.96712571 -8.36440197 41.59741673 -7 30 C-6.7215625 28.7625 -6.7215625 28.7625 -6.4375 27.5 C-5.40321161 21.58978065 -6.21601137 15.87991471 -7 10 C-7 9.01 -7 8.02 -7 7 C-5.33720673 5.9935725 -3.67016516 4.99414593 -2 4 C-0.67206394 1.93299345 -0.67206394 1.93299345 0 0 Z " fill="#EA712C" transform="translate(162,63)"/>
<path d="M0 0 C0.54785156 0.48726562 1.09570312 0.97453125 1.66015625 1.4765625 C1.66015625 2.4665625 1.66015625 3.4565625 1.66015625 4.4765625 C0.85578125 4.6003125 0.05140625 4.7240625 -0.77734375 4.8515625 C-1.62296875 5.0578125 -2.46859375 5.2640625 -3.33984375 5.4765625 C-3.66984375 6.1365625 -3.99984375 6.7965625 -4.33984375 7.4765625 C-8.69177127 7.82535086 -11.21744614 6.78156735 -15.02734375 4.7265625 C-22.61263509 0.7848202 -29.72939991 -2.75464787 -38.33984375 -3.5234375 C-39.44392578 -3.67619141 -39.44392578 -3.67619141 -40.5703125 -3.83203125 C-49.9139636 -5.03526772 -59.05859804 -3.77283596 -68.33984375 -2.5234375 C-68.33984375 -3.1834375 -68.33984375 -3.8434375 -68.33984375 -4.5234375 C-66.35984375 -4.8534375 -64.37984375 -5.1834375 -62.33984375 -5.5234375 C-62.33984375 -6.1834375 -62.33984375 -6.8434375 -62.33984375 -7.5234375 C-63.43296875 -7.8328125 -64.52609375 -8.1421875 -65.65234375 -8.4609375 C-67.89392369 -9.10681647 -70.12677885 -9.7857492 -72.33984375 -10.5234375 C-75.25152038 -9.72736224 -75.25152038 -9.72736224 -78.33984375 -8.3984375 C-79.39171875 -7.98335937 -80.44359375 -7.56828125 -81.52734375 -7.140625 C-84.7244741 -5.30227505 -85.55518287 -3.66610564 -87.33984375 -0.5234375 C-90.77734375 0.1015625 -90.77734375 0.1015625 -94.33984375 0.4765625 C-96.72012666 1.90331423 -96.72012666 1.90331423 -98.33984375 3.4765625 C-95.78008577 -3.09540042 -88.37559426 -6.03548094 -82.3671875 -8.98046875 C-53.46577924 -21.5843767 -25.9522189 -16.89710412 0 0 Z " fill="#0B6796" transform="translate(138.33984375,25.5234375)"/>
<path d="M0 0 C0.99 0.33 1.98 0.66 3 1 C2.67 4.3 2.34 7.6 2 11 C3.65 10.67 5.3 10.34 7 10 C2.99546193 14.36067288 -1.38020013 17.41455358 -6.375 20.5625 C-7.10460937 21.03107422 -7.83421875 21.49964844 -8.5859375 21.98242188 C-15.25903332 26.24247858 -21.30981065 29.86383629 -29 32 C-29.74378906 32.51046875 -30.48757812 33.0209375 -31.25390625 33.546875 C-34.78870729 35.41735293 -37.33932322 35.29889748 -41.3125 35.1875 C-42.56675781 35.16042969 -43.82101563 35.13335937 -45.11328125 35.10546875 C-46.06589844 35.07066406 -47.01851562 35.03585938 -48 35 C-48.625 33.1875 -48.625 33.1875 -49 31 C-48.01 29.515 -48.01 29.515 -47 28 C-47.020625 27.05125 -47.04125 26.1025 -47.0625 25.125 C-46.98819395 21.40969766 -46.41367274 19.81595153 -44 17 C-41 16.0625 -41 16.0625 -38 16 C-37.01 16.66 -36.02 17.32 -35 18 C-35 17.34 -35 16.68 -35 16 C-34.113125 16.185625 -33.22625 16.37125 -32.3125 16.5625 C-23.27962395 17.75552137 -15.55011429 11.76323129 -8.65625 6.5 C-6.5788056 4.90134525 -4.53623661 3.27228667 -2.49609375 1.625 C-1.67238281 1.08875 -0.84867188 0.5525 0 0 Z " fill="#044587" transform="translate(96,89)"/>
<path d="M0 0 C-0.6998638 8.09224827 -1.8461348 16.09613006 -3.0625 24.125 C-3.24876953 25.36765625 -3.43503906 26.6103125 -3.62695312 27.890625 C-4.08247171 30.9274156 -4.54020075 33.96385511 -5 37 C-8.3452117 36.27238626 -9.89242365 35.4558202 -12.25 32.9375 C-12.77078125 32.38964844 -13.2915625 31.84179688 -13.828125 31.27734375 C-14.21484375 30.85582031 -14.6015625 30.43429688 -15 30 C-15.39832031 30.433125 -15.79664063 30.86625 -16.20703125 31.3125 C-16.73683594 31.869375 -17.26664063 32.42625 -17.8125 33 C-18.33457031 33.556875 -18.85664063 34.11375 -19.39453125 34.6875 C-21 36 -21 36 -24 36 C-24 36.66 -24 37.32 -24 38 C-25.3125 39.625 -25.3125 39.625 -27 41 C-27.99 41 -28.98 41 -30 41 C-31.26132231 37.21603308 -30.91214879 34.85909105 -30 31 C-29.34644531 30.68804687 -28.69289062 30.37609375 -28.01953125 30.0546875 C-25.82706951 29.1850784 -25.82706951 29.1850784 -25.1796875 27.01171875 C-24.44546038 22.38444563 -24.44546038 22.38444563 -26.28515625 18.296875 C-28.10256337 16.74443149 -28.10256337 16.74443149 -31 15 C-29.71735273 12.43470546 -28.77227651 12.33500137 -26.125 11.375 C-25.42632812 11.11460938 -24.72765625 10.85421875 -24.0078125 10.5859375 C-22 10 -22 10 -19 10 C-18.90775146 9.37512695 -18.81550293 8.75025391 -18.72045898 8.10644531 C-18.48270752 7.41131836 -18.24495605 6.71619141 -18 6 C-15.32581932 4.70881199 -12.85449346 3.69594765 -10.0625 2.75 C-9.32064453 2.481875 -8.57878906 2.21375 -7.81445312 1.9375 C-2.36276307 0 -2.36276307 0 0 0 Z " fill="#EF7428" transform="translate(163,27)"/>
<path d="M0 0 C2.49005828 0.41500971 4.64490181 0.8218838 6.91088867 1.95849609 C20.93501673 8.95007379 37.77397531 8.67945325 53 8 C54.94566951 11.47547073 55.07637127 13.12506344 54 17 C55.32 17.33 56.64 17.66 58 18 C48.5062893 24.1103138 32.28668833 21.05505052 21.94384766 18.82348633 C15.53987977 17.30455589 9.80290252 15.11811808 4 12 C2.59234375 11.34451172 2.59234375 11.34451172 1.15625 10.67578125 C-4.06758008 8.23261353 -4.06758008 8.23261353 -6 7 C-6.33 6.01 -6.66 5.02 -7 4 C-6.01 4 -5.02 4 -4 4 C-4 4.66 -4 5.32 -4 6 C-3.34 6 -2.68 6 -2 6 C-1.67 5.34 -1.34 4.68 -1 4 C-0.34 3.67 0.32 3.34 1 3 C0.67 2.01 0.34 1.02 0 0 Z " fill="#09457D" transform="translate(50,143)"/>
<path d="M0 0 C4.53318393 3.94004894 6.88999138 9.75210708 9.68994141 14.96948242 C10.74814974 16.93406496 11.82473606 18.88780373 12.90234375 20.84179688 C13.57667346 22.09052409 14.24988913 23.33985367 14.921875 24.58984375 C15.53643555 25.72284912 16.15099609 26.85585449 16.78417969 28.02319336 C18 31 18 31 17.7487793 33.26586914 C17.50168213 33.83813232 17.25458496 34.41039551 17 35 C16.70222656 35.7115625 16.40445313 36.423125 16.09765625 37.15625 C15.75605469 37.9296875 15.41445312 38.703125 15.0625 39.5 C12.72458207 45.19601823 11.79393689 50.92011487 11 57 C8.36 57.66 5.72 58.32 3 59 C2.874 52.574 2.874 52.574 3.5625 49.4375 C4.59848293 43.66559511 2.39386049 39.4626808 -0.5625 34.625 C-1.20316406 33.56539062 -1.84382813 32.50578125 -2.50390625 31.4140625 C-2.99761719 30.61742188 -3.49132812 29.82078125 -4 29 C-5.98 32.465 -5.98 32.465 -8 36 C-8.66 36 -9.32 36 -10 36 C-6.12597741 25.86794092 -6.12597741 25.86794092 -2 22.6875 C1.30289912 20.09829265 2.64076629 17.3449628 3.80859375 13.34765625 C4.09524459 9.83179592 2.83447571 7.64257345 0.98046875 4.7265625 C0 3 0 3 0 0 Z " fill="#266185" transform="translate(94,42)"/>
<path d="M0 0 C0.66 0 1.32 0 2 0 C5.19964471 15.21782242 4.6973322 33.84777527 -2.46875 47.875 C-2.9740625 48.57625 -3.479375 49.2775 -4 50 C-6.6875 50.3125 -6.6875 50.3125 -9 50 C-10.39796892 45.80609325 -8.81698787 43.91351234 -7 40 C-4.34157664 32.02472991 -4.86876905 23.18615823 -4.9375 14.875 C-4.94201172 13.823125 -4.94652344 12.77125 -4.95117188 11.6875 C-4.96281989 9.12493779 -4.97917447 6.56250123 -5 4 C-3.35 3.34 -1.7 2.68 0 2 C0 1.34 0 0.68 0 0 Z " fill="#F07428" transform="translate(162,67)"/>
<path d="M0 0 C0.99 0.33 1.98 0.66 3 1 C2.67 4.3 2.34 7.6 2 11 C3.65 10.67 5.3 10.34 7 10 C3.53092419 13.661446 0.04844095 16.51835758 -4.1875 19.3125 C-5.23292969 20.00988281 -6.27835938 20.70726563 -7.35546875 21.42578125 C-10 23 -10 23 -12 23 C-12 22.34 -12 21.68 -12 21 C-11.34 20.67 -10.68 20.34 -10 20 C-10 19.34 -10 18.68 -10 18 C-12.3015411 17.22197813 -12.3015411 17.22197813 -15 17 C-17.94636211 18.68363549 -19.08971364 20.13457046 -21 23 C-21.33 22.01 -21.66 21.02 -22 20 C-23.65 20 -25.3 20 -27 20 C-27.33 20.66 -27.66 21.32 -28 22 C-31.375 21.6875 -31.375 21.6875 -35 21 C-35.66 20.01 -36.32 19.02 -37 18 C-36.34 18 -35.68 18 -35 18 C-35 17.34 -35 16.68 -35 16 C-34.113125 16.185625 -33.22625 16.37125 -32.3125 16.5625 C-23.27962395 17.75552137 -15.55011429 11.76323129 -8.65625 6.5 C-6.5788056 4.90134525 -4.53623661 3.27228667 -2.49609375 1.625 C-1.67238281 1.08875 -0.84867188 0.5525 0 0 Z " fill="#044D92" transform="translate(96,89)"/>
<path d="M0 0 C0.495 1.485 0.495 1.485 1 3 C-2.63 4.32 -6.26 5.64 -10 7 C-9.195625 7.721875 -8.39125 8.44375 -7.5625 9.1875 C-4.97707928 12.02515689 -4.31957187 13.27166147 -4 17 C-4.66 17 -5.32 17 -6 17 C-6.2475 17.7425 -6.495 18.485 -6.75 19.25 C-8.10465039 22.23023087 -9.5101541 23.89919252 -12 26 C-12.66 26 -13.32 26 -14 26 C-14.0928125 26.86625 -14.0928125 26.86625 -14.1875 27.75 C-15.3187079 30.88257571 -17.37947801 32.03460851 -20 34 C-20.33 34.66 -20.66 35.32 -21 36 C-21.66 36 -22.32 36 -23 36 C-23 36.66 -23 37.32 -23 38 C-23.66 38 -24.32 38 -25 38 C-25.144375 39.216875 -25.28875 40.43375 -25.4375 41.6875 C-26.59009684 50.62407277 -26.59009684 50.62407277 -28.4609375 52.33984375 C-31.37866701 55.48714081 -31.54008464 59.86076174 -32 64 C-31.75431785 68.99553703 -30.60044364 71.81667762 -28 76 C-28 77.32 -28 78.64 -28 80 C-28.66 80 -29.32 80 -30 80 C-30.83819158 78.37750059 -31.6704116 76.75191503 -32.5 75.125 C-32.9640625 74.22007813 -33.428125 73.31515625 -33.90625 72.3828125 C-35 70 -35 70 -35 68 C-35.66 67.67 -36.32 67.34 -37 67 C-38.95926129 58.60316591 -37.22692905 50.40954449 -32.79296875 42.9765625 C-30.97757907 40.70588462 -28.90065148 38.92156696 -26.625 37.125 C-23.65769101 34.72289272 -21.37097657 32.05488359 -18.90625 29.15234375 C-16.33271277 26.24656708 -13.53571979 23.60406071 -10.69921875 20.95703125 C-8.79358035 18.76226151 -7.9309327 16.73609155 -7 14 C-9.31 12.02 -11.62 10.04 -14 8 C-11.57869669 4.36804504 -9.88070904 3.88921526 -5.875 2.3125 C-4.77929688 1.87550781 -3.68359375 1.43851563 -2.5546875 0.98828125 C-1.71164063 0.66214844 -0.86859375 0.33601563 0 0 Z " fill="#D75433" transform="translate(143,34)"/>
<path d="M0 0 C1 3 1 3 0.125 6.25 C-2.68806403 16.78935632 -2.11625247 26.98230406 -0.4921875 37.60546875 C1.04588425 48.21328107 1.04588425 48.21328107 -1.5 52.5625 C-1.995 53.036875 -2.49 53.51125 -3 54 C-3.66 53.01 -4.32 52.02 -5 51 C-6.41399521 49.03270232 -7.72658912 47.24683898 -9.52734375 45.62109375 C-15.56850958 38.97100404 -14.30828554 23.47785237 -14 15 C-13.67 14.01 -13.34 13.02 -13 12 C-12.34 12 -11.68 12 -11 12 C-10.93941406 13.16917969 -10.87882813 14.33835937 -10.81640625 15.54296875 C-10.73195966 17.09115614 -10.64731375 18.63933268 -10.5625 20.1875 C-10.52318359 20.95642578 -10.48386719 21.72535156 -10.44335938 22.51757812 C-10.22492966 26.43251075 -9.91307892 30.17120688 -9 34 C-7.68 33.34 -6.36 32.68 -5 32 C-4.96261719 30.75605469 -4.92523438 29.51210937 -4.88671875 28.23046875 C-4.1497992 8.2995984 -4.1497992 8.2995984 0 0 Z " fill="#0F4680" transform="translate(26,62)"/>
<path d="M0 0 C0.99 0.495 0.99 0.495 2 1 C1.01 1.495 1.01 1.495 0 2 C0 1.34 0 0.68 0 0 Z M-1 2 C-0.67 2.99 -0.34 3.98 0 5 C-0.66 4.67 -1.32 4.34 -2 4 C-1.67 3.34 -1.34 2.68 -1 2 Z M-4 5 C-3.34 5 -2.68 5 -2 5 C-2.66 8.96 -3.32 12.92 -4 17 C-3.01 17 -2.02 17 -1 17 C-0.67 16.01 -0.34 15.02 0 14 C0.66 14 1.32 14 2 14 C2 13.34 2 12.68 2 12 C2.66 12 3.32 12 4 12 C2.43238691 15.77453209 0.06806222 18.19921252 -2.8125 21.0625 C-4.09060547 22.34833984 -4.09060547 22.34833984 -5.39453125 23.66015625 C-7.82319177 25.84121719 -10.17430728 27.39361305 -13 29 C-13.556875 29.556875 -14.11375 30.11375 -14.6875 30.6875 C-15.3371875 31.3371875 -15.3371875 31.3371875 -16 32 C-16.66 32 -17.32 32 -18 32 C-18.33 32.99 -18.66 33.98 -19 35 C-21 33 -21 33 -21.25 29.6875 C-21.01863452 26.27485916 -20.4765288 24.04534065 -19 21 C-18.34 21 -17.68 21 -17 21 C-17 20.34 -17 19.68 -17 19 C-16.34 19 -15.68 19 -15 19 C-14.7525 18.401875 -14.505 17.80375 -14.25 17.1875 C-12.82997292 14.70245261 -11.27294041 13.68637514 -9 12 C-8.67 11.01 -8.34 10.02 -8 9 C-7.34 9 -6.68 9 -6 9 C-5.34 7.68 -4.68 6.36 -4 5 Z " fill="#EE5D2C" transform="translate(137,51)"/>
<path d="M0 0 C0.66 0 1.32 0 2 0 C9.07339716 21.09388081 4.64169477 42.57721246 -5 62 C-5.66 62.99 -6.32 63.98 -7 65 C-7.66 64.67 -8.32 64.34 -9 64 C-8.5875 63.195625 -8.175 62.39125 -7.75 61.5625 C-7.1725 60.386875 -6.595 59.21125 -6 58 C-5.53013672 57.071875 -5.53013672 57.071875 -5.05078125 56.125 C-3.92872682 53.7833212 -2.95041761 51.41667526 -2 49 C-1.62230469 48.05640625 -1.24460938 47.1128125 -0.85546875 46.140625 C3.6269336 32.64590131 2.35417842 18.03772531 2 4 C1.34 4 0.68 4 0 4 C0 4.66 0 5.32 0 6 C-1.65 6.66 -3.3 7.32 -5 8 C-4.75636719 9.23363281 -4.75636719 9.23363281 -4.5078125 10.4921875 C-3.94348381 14.39039645 -3.84881811 18.19682902 -3.875 22.125 C-3.88116333 23.24116699 -3.88116333 23.24116699 -3.88745117 24.37988281 C-4.0634432 41.96394624 -4.0634432 41.96394624 -8 48 C-8.9858544 49.82974577 -9.96490878 51.6631699 -10.9375 53.5 C-13.00203949 57.31502185 -15.08886953 60.75296986 -18 64 C-18.66 63.67 -19.32 63.34 -20 63 C-19.60167969 62.43152344 -19.20335937 61.86304688 -18.79296875 61.27734375 C-12.2024033 51.67211575 -8.36297024 41.58524705 -7 30 C-6.7215625 28.7625 -6.7215625 28.7625 -6.4375 27.5 C-5.40321161 21.58978065 -6.21601137 15.87991471 -7 10 C-7 9.01 -7 8.02 -7 7 C-5.33720673 5.9935725 -3.67016516 4.99414593 -2 4 C-0.67206394 1.93299345 -0.67206394 1.93299345 0 0 Z " fill="#CD6837" transform="translate(162,63)"/>
<path d="M0 0 C0.66 0.33 1.32 0.66 2 1 C1.09674384 2.32176485 0.17682097 3.63215066 -0.75 4.9375 C-1.51570313 6.03384766 -1.51570313 6.03384766 -2.296875 7.15234375 C-4.23704492 9.25716112 -5.30082086 9.37056957 -8 10 C-8.33 10.99 -8.66 11.98 -9 13 C-11 13.66666667 -13 14.33333333 -15 15 C-15.33 15.99 -15.66 16.98 -16 18 C-16.99 18.33 -17.98 18.66 -19 19 C-19.33 19.99 -19.66 20.98 -20 22 C-19.01 22.66 -18.02 23.32 -17 24 C-16.67 24.33 -16.34 24.66 -16 25 C-15.01 25.33 -14.02 25.66 -13 26 C-15.64738916 27.4606285 -16.89448334 28 -20 28 C-20.33 28.66 -20.66 29.32 -21 30 C-23.28515625 30.8515625 -23.28515625 30.8515625 -26.0625 31.625 C-27.44115234 32.01558594 -27.44115234 32.01558594 -28.84765625 32.4140625 C-29.55792969 32.60742188 -30.26820312 32.80078125 -31 33 C-31 32.34 -31 31.68 -31 31 C-32.32 31.33 -33.64 31.66 -35 32 C-35.93423645 28.98968256 -36.04449911 28.13349732 -35 25 C-35.33 24.01 -35.66 23.02 -36 22 C-35.24976562 21.76925781 -34.49953125 21.53851563 -33.7265625 21.30078125 C-20.34333166 17.03635127 -8.69640384 11.43636669 0 0 Z " fill="#CC7739" transform="translate(139,129)"/>
<path d="M0 0 C4.29875392 0.31399594 7.41565984 2.18966215 11.0625 4.375 C12.08472656 4.98085938 13.10695312 5.58671875 14.16015625 6.2109375 C19.2013422 9.38681531 19.2013422 9.38681531 21 11 C21 11.99 21 12.98 21 14 C20.195625 14.12375 19.39125 14.2475 18.5625 14.375 C17.716875 14.58125 16.87125 14.7875 16 15 C15.67 15.66 15.34 16.32 15 17 C11.07402832 17.25015041 8.73158083 16.67722383 5.3125 14.75 C4.16201172 14.12351562 4.16201172 14.12351562 2.98828125 13.484375 C0.7693121 11.82777721 0.12461732 10.48331789 -1 8 C-3.0335948 6.73195434 -3.0335948 6.73195434 -5 6 C-4.34 6 -3.68 6 -3 6 C-2.87625 5.38125 -2.7525 4.7625 -2.625 4.125 C-2 2 -2 2 0 0 Z " fill="#817155" transform="translate(119,16)"/>
<path d="M0 0 C0.99 0 1.98 0 3 0 C5.09472468 3.45013477 5.09472468 3.45013477 4.6796875 5.859375 C3.9505064 8.1558764 3.03586791 10.29614812 2.0625 12.5 C-0.27541793 18.19601823 -1.20606311 23.92011487 -2 30 C-4.64 30.66 -7.28 31.32 -10 32 C-10.1468178 24.51229225 -8.68458799 18.69210207 -6.125 11.75 C-5.74021484 10.65171875 -5.74021484 10.65171875 -5.34765625 9.53125 C-4.65506501 7.65185669 -3.83539641 5.82041607 -3 4 C-2.01 3.67 -1.02 3.34 0 3 C0 2.01 0 1.02 0 0 Z " fill="#6B6161" transform="translate(107,69)"/>
<path d="M0 0 C1.61949011 2.57213134 2.04408751 3.67669159 1.625 6.75 C1.315625 7.86375 1.315625 7.86375 1 9 C2.32 9.33 3.64 9.66 5 10 C-0.76448674 13.33176757 -7.34135448 12.56532095 -13.625 11 C-15.295625 10.505 -15.295625 10.505 -17 10 C-18 3.25 -18 3.25 -18 1 C-15.37504621 0.83257698 -12.75004205 0.6660283 -10.125 0.5 C-9.00544922 0.42845703 -9.00544922 0.42845703 -7.86328125 0.35546875 C-2.2265625 0 -2.2265625 0 0 0 Z " fill="#646866" transform="translate(103,151)"/>
<path d="M0 0 C11.54190008 -0.61831608 23.22435112 1.95913167 34 6 C32 10 32 10 30 14 C30.99 14.99 31.98 15.98 33 17 C31 18 31 18 28.6171875 17.22265625 C27.25980469 16.64837891 27.25980469 16.64837891 25.875 16.0625 C24.96492188 15.68222656 24.05484375 15.30195313 23.1171875 14.91015625 C22.41851562 14.60980469 21.71984375 14.30945312 21 14 C21 13.01 21 12.02 21 11 C20.01 10.67 19.02 10.34 18 10 C18.33 8.02 18.66 6.04 19 4 C12.73 3.34 6.46 2.68 0 2 C0 1.34 0 0.68 0 0 Z " fill="#3E7183" transform="translate(86,9)"/>
<path d="M0 0 C3.93639176 1.31213059 4.28653597 2.82801522 6.1875 6.4375 C6.71730469 7.42621094 7.24710938 8.41492188 7.79296875 9.43359375 C9 12 9 12 9 14 C8.34 14 7.68 14 7 14 C7 14.99 7 15.98 7 17 C6.55011719 17.43957031 6.10023437 17.87914063 5.63671875 18.33203125 C3.45847721 20.55186212 2.81177803 22.75858162 1.8125 25.6875 C1.46832031 26.68136719 1.12414062 27.67523438 0.76953125 28.69921875 C0.51558594 29.45847656 0.26164062 30.21773437 0 31 C-2.40575607 28.81482901 -3.79535581 26.74080329 -5.1875 23.8125 C-5.53167969 23.09707031 -5.87585938 22.38164063 -6.23046875 21.64453125 C-6.48441406 21.10183594 -6.73835938 20.55914062 -7 20 C-5.68 20.33 -4.36 20.66 -3 21 C-3.061875 19.576875 -3.061875 19.576875 -3.125 18.125 C-3 15 -3 15 -1 13 C-1 13.99 -1 14.98 -1 16 C-0.34 16 0.32 16 1 16 C1.02712153 14.083412 1.04645097 12.1667127 1.0625 10.25 C1.07410156 9.18265625 1.08570312 8.1153125 1.09765625 7.015625 C1.01510087 4.46631499 0.74617558 2.42066409 0 0 Z " fill="#446A77" transform="translate(100,55)"/>
<path d="M0 0 C3.3 0.33 6.6 0.66 10 1 C12.125 6.625 12.125 6.625 11 10 C13.64 10.33 16.28 10.66 19 11 C12.89947121 14.68603379 5.46489864 12.65521535 -1.12109375 11.03515625 C-4.76647271 10.08731491 -8.38619519 9.06143174 -12 8 C-10.12109375 6.9375 -10.12109375 6.9375 -8 6 C-7.360625 6.33 -6.72125 6.66 -6.0625 7 C-3.93125194 8.32566746 -3.93125194 8.32566746 -1.25 7.125 C-0.5075 6.75375 0.235 6.3825 1 6 C0.34 6 -0.32 6 -1 6 C-1.33 5.01 -1.66 4.02 -2 3 C-0.68 3 0.64 3 2 3 C2 2.34 2 1.68 2 1 C1.34 0.67 0.68 0.34 0 0 Z " fill="#215A7C" transform="translate(75,151)"/>
<path d="M0 0 C-0.32559377 3.00343637 -0.88808428 3.90288795 -3.21484375 5.921875 C-4.56255859 6.82679688 -4.56255859 6.82679688 -5.9375 7.75 C-6.83339844 8.36359375 -7.72929687 8.9771875 -8.65234375 9.609375 C-11 11 -11 11 -13 11 C-13 11.99 -13 12.98 -13 14 C-14.98 14.33 -16.96 14.66 -19 15 C-19.99 13.35 -20.98 11.7 -22 10 C-20 7 -20 7 -17 6 C-16.54625 5.54625 -16.0925 5.0925 -15.625 4.625 C-10.89771815 -0.10228185 -6.38704772 -1.59676193 0 0 Z " fill="#EC8228" transform="translate(140,140)"/>
<path d="M0 0 C2.3431213 0.25561323 4.67843403 0.59270772 7 1 C7.33 1.66 7.66 2.32 8 3 C7.03825695 4.72450478 6.06863281 6.44554261 5.04296875 8.1328125 C3.84196325 10.13792274 3.84196325 10.13792274 3 13.125 C1.85842023 16.40704185 0.37279308 18.47890736 -2 21 C-2.66 21 -3.32 21 -4 21 C-4 18.36 -4 15.72 -4 13 C-6.49361571 14.20381448 -8.68143083 15.45428722 -11 17 C-9.58504245 12.49786235 -7.29539127 10.29539127 -4 7 C-2.52109923 4.7222075 -1.27289725 2.40436148 0 0 Z " fill="#EB682B" transform="translate(151,115)"/>
<path d="M0 0 C0.721875 0.00257812 1.44375 0.00515625 2.1875 0.0078125 C2.909375 0.00523438 3.63125 0.00265625 4.375 0 C6.1875 0.1328125 6.1875 0.1328125 7.1875 1.1328125 C7.3125 3.6328125 7.3125 3.6328125 7.1875 6.1328125 C6.8575 6.4628125 6.5275 6.7928125 6.1875 7.1328125 C6.8475 7.4628125 7.5075 7.7928125 8.1875 8.1328125 C8.1875 8.7928125 8.1875 9.4528125 8.1875 10.1328125 C4.703833 11.31316085 2.30927573 10.90551822 -1.25 10.1328125 C-7.95703896 8.91260639 -14.07860637 9.32719714 -20.8125 10.1328125 C-22.09833984 10.27976562 -22.09833984 10.27976562 -23.41015625 10.4296875 C-25.21320522 10.64592618 -27.01339812 10.88587695 -28.8125 11.1328125 C-28.8125 10.4728125 -28.8125 9.8128125 -28.8125 9.1328125 C-20.50125949 7.37082951 -12.30819832 5.71251897 -3.8125 5.1328125 C-3.668125 4.4934375 -3.52375 3.8540625 -3.375 3.1953125 C-2.55460316 0.18719075 -2.55460316 0.18719075 0 0 Z " fill="#1D5A87" transform="translate(98.8125,11.8671875)"/>
<path d="M0 0 C0.91504754 3.01146244 1.02440192 5.32324447 0.625 8.4375 C0.52703125 9.22382812 0.4290625 10.01015625 0.328125 10.8203125 C0.07593766 12.495557 -0.25749377 14.15872197 -0.625 15.8125 C-1.05066764 18.29556123 -0.70638565 19.5982888 0 22 C0.12375 23.134375 0.2475 24.26875 0.375 25.4375 C1.00728787 29.04154084 2.10087581 30.94488717 4 34 C4 35.32 4 36.64 4 38 C3.34 38 2.68 38 2 38 C1.16180842 36.37750059 0.3295884 34.75191503 -0.5 33.125 C-0.9640625 32.22007813 -1.428125 31.31515625 -1.90625 30.3828125 C-3 28 -3 28 -3 26 C-3.66 25.67 -4.32 25.34 -5 25 C-6.87235778 16.97560953 -4.96850812 10.57336699 -2 3 C-1.34 2.01 -0.68 1.02 0 0 Z " fill="#B7523D" transform="translate(111,76)"/>
<path d="M0 0 C0.495 0.99 0.495 0.99 1 2 C3.31 2 5.62 2 8 2 C8 2.33 8 2.66 8 3 C4.04 3 0.08 3 -4 3 C-3.505 4.485 -3.505 4.485 -3 6 C-6.4320982 7.13323997 -8.96026589 6.80189403 -12.5 6.25 C-19.41333882 5.5883553 -25.16555771 7.2199388 -31 11 C-32.01866229 12.65532623 -33.02134231 14.32071238 -34 16 C-37.4375 16.625 -37.4375 16.625 -41 17 C-43.38028291 18.42675173 -43.38028291 18.42675173 -45 20 C-42.44024202 13.42803708 -35.03575051 10.48795656 -29.02734375 7.54296875 C-19.69534923 3.47328471 -10.12771736 0.97381898 0 0 Z " fill="#226894" transform="translate(85,9)"/>
<path d="M0 0 C1.32 0.66 2.64 1.32 4 2 C3.34 2.5775 2.68 3.155 2 3.75 C-0.44290923 5.99653977 -0.44290923 5.99653977 0 10 C-0.99 10.33 -1.98 10.66 -3 11 C-3.33 11.66 -3.66 12.32 -4 13 C-4.99 13 -5.98 13 -7 13 C-7 13.66 -7 14.32 -7 15 C-8.32 15.33 -9.64 15.66 -11 16 C-11.33 15.34 -11.66 14.68 -12 14 C-12.99 14 -13.98 14 -15 14 C-14.67 11.69 -14.34 9.38 -14 7 C-13.01 7 -12.02 7 -11 7 C-10.071875 6.2265625 -10.071875 6.2265625 -9.125 5.4375 C-7 4 -7 4 -4.25 4.3125 C-3.5075 4.539375 -2.765 4.76625 -2 5 C-1.855625 4.360625 -1.71125 3.72125 -1.5625 3.0625 C-1 1 -1 1 0 0 Z " fill="#04569F" transform="translate(53,20)"/>
<path d="M0 0 C0.99 0.33 1.98 0.66 3 1 C2.67 4.3 2.34 7.6 2 11 C3.65 10.67 5.3 10.34 7 10 C3.87378374 13.39417765 1.43458973 15.6062718 -3 17 C-6 11.25 -6 11.25 -6 9 C-7.32 8.34 -8.64 7.68 -10 7 C-8.4050992 5.80008401 -6.79873853 4.61538682 -5.1875 3.4375 C-3.84751953 2.44556641 -3.84751953 2.44556641 -2.48046875 1.43359375 C-1.66191406 0.96050781 -0.84335938 0.48742187 0 0 Z " fill="#2E5075" transform="translate(96,89)"/>
<path d="M0 0 C0.66 0.66 1.32 1.32 2 2 C2.99 2 3.98 2 5 2 C4.49821009 6.3488459 1.90302462 8.89443878 -1 12 C-3.3125 13.375 -3.3125 13.375 -5 14 C-5.66 12.68 -6.32 11.36 -7 10 C-7.45375 10.495 -7.9075 10.99 -8.375 11.5 C-10 13 -10 13 -12 13 C-10.5417612 8.86832339 -8.74374488 5.4296811 -6 2 C-2.75 0.625 -2.75 0.625 0 0 Z " fill="#0456A3" transform="translate(35,35)"/>
<path d="M0 0 C-0.6998638 8.09224827 -1.8461348 16.09613006 -3.0625 24.125 C-3.24876953 25.36765625 -3.43503906 26.6103125 -3.62695312 27.890625 C-4.08247171 30.9274156 -4.54020075 33.96385511 -5 37 C-8.3452117 36.27238626 -9.89242365 35.4558202 -12.25 32.9375 C-12.77078125 32.38964844 -13.2915625 31.84179688 -13.828125 31.27734375 C-14.21484375 30.85582031 -14.6015625 30.43429688 -15 30 C-15.66 30.33 -16.32 30.66 -17 31 C-17 30.01 -17 29.02 -17 28 C-12.62005327 28.50537847 -10.22829999 31.22719987 -7 34 C-6.82609741 32.75126099 -6.82609741 32.75126099 -6.64868164 31.47729492 C-6.21669604 28.38517614 -5.782179 25.29342667 -5.34594727 22.2019043 C-5.15775822 20.86448156 -4.97057523 19.52691686 -4.78442383 18.18920898 C-4.51649051 16.26509054 -4.24462381 14.34152111 -3.97265625 12.41796875 C-3.81031494 11.26063232 -3.64797363 10.1032959 -3.48071289 8.91088867 C-3 6 -3 6 -2 3 C-2.98742187 3.3609375 -3.97484375 3.721875 -4.9921875 4.09375 C-6.28639791 4.56266681 -7.58067206 5.03140769 -8.875 5.5 C-9.85146484 5.85771484 -9.85146484 5.85771484 -10.84765625 6.22265625 C-15.7734375 8 -15.7734375 8 -18 8 C-18 7.34 -18 6.68 -18 6 C-15.37646482 4.99600476 -12.75132205 3.99665555 -10.125 3 C-9.37863281 2.71382812 -8.63226563 2.42765625 -7.86328125 2.1328125 C-2.2265625 0 -2.2265625 0 0 0 Z " fill="#C96D3B" transform="translate(163,27)"/>
<path d="M0 0 C2.61580479 0.3269756 4.64078137 0.82039068 7 2 C7.17942163 5.94727588 7.09350689 8.5980513 5 12 C5.66 12 6.32 12 7 12 C7 12.66 7 13.32 7 14 C4.125 13.25 4.125 13.25 1 12 C-0.125 10 -0.125 10 -1 8 C-3.0335948 6.73195434 -3.0335948 6.73195434 -5 6 C-4.34 6 -3.68 6 -3 6 C-2.87625 5.38125 -2.7525 4.7625 -2.625 4.125 C-2 2 -2 2 0 0 Z " fill="#717062" transform="translate(119,16)"/>
<path d="M0 0 C1.61949011 2.57213134 2.04408751 3.67669159 1.625 6.75 C1.41875 7.4925 1.2125 8.235 1 9 C2.32 9.33 3.64 9.66 5 10 C2.15524534 11.93443317 0.89882691 11.99127818 -2.625 11.6875 C-6 11 -6 11 -8 10 C-8 8.02 -8 6.04 -8 4 C-7.01 3.67 -6.02 3.34 -5 3 C-5 2.34 -5 1.68 -5 1 C-2 0 -2 0 0 0 Z " fill="#856457" transform="translate(103,151)"/>
<path d="M0 0 C-1.485 1.485 -1.485 1.485 -3 3 C-2.67 3.66 -2.34 4.32 -2 5 C-2.4375 7.125 -2.4375 7.125 -3 9 C-2.34 9 -1.68 9 -1 9 C-1 9.66 -1 10.32 -1 11 C-2.65 11.66 -4.3 12.32 -6 13 C-6 12.34 -6 11.68 -6 11 C-7.32 11.33 -8.64 11.66 -10 12 C-10.93423645 8.98968256 -11.04449911 8.13349732 -10 5 C-10.33 4.01 -10.66 3.02 -11 2 C-7.17679443 0.57741188 -4.08718695 -0.24042276 0 0 Z " fill="#B2703A" transform="translate(114,149)"/>
<path d="M0 0 C0.66 0.99 1.32 1.98 2 3 C1.01 4.485 1.01 4.485 0 6 C0.61875 5.79375 1.2375 5.5875 1.875 5.375 C2.57625 5.25125 3.2775 5.1275 4 5 C4.66 5.66 5.32 6.32 6 7 C6.66 7 7.32 7 8 7 C8 6.34 8 5.68 8 5 C8.99 5.33 9.98 5.66 11 6 C10.48050781 6.43570313 9.96101563 6.87140625 9.42578125 7.3203125 C5.16777334 10.95654106 1.44527348 14.58574336 -2 19 C-2.33 18.34 -2.66 17.68 -3 17 C-2.360625 16.236875 -1.72125 15.47375 -1.0625 14.6875 C1.14232781 12.11753287 1.14232781 12.11753287 2 9 C0.68 9.33 -0.64 9.66 -2 10 C-2.33 9.34 -2.66 8.68 -3 8 C-4.32 8.33 -5.64 8.66 -7 9 C-5.44499019 5.18315774 -2.96404505 2.80804268 0 0 Z " fill="#185A95" transform="translate(38,28)"/>
<path d="M0 0 C1.32 0.66 2.64 1.32 4 2 C3.71253906 2.6909375 3.42507812 3.381875 3.12890625 4.09375 C1.923583 7.1967275 0.91511253 10.31811283 -0.0625 13.5 C-0.40410156 14.6034375 -0.74570313 15.706875 -1.09765625 16.84375 C-1.87324015 19.55661488 -2.49792643 22.22565535 -3 25 C-3.99 25 -4.98 25 -6 25 C-5.20668058 5.20668058 -5.20668058 5.20668058 0 0 Z " fill="#965C4C" transform="translate(108,72)"/>
<path d="M0 0 C0.66 0 1.32 0 2 0 C2.08159574 4.16138263 1.98248524 7.9472484 1 12 C0.01 11.67 -0.98 11.34 -2 11 C-2.33 12.98 -2.66 14.96 -3 17 C-5.4375 16.25 -5.4375 16.25 -8 15 C-8.8125 12.875 -8.8125 12.875 -9 11 C-8.01 10.67 -7.02 10.34 -6 10 C-5.505 9.01 -5.01 8.02 -4.5 7 C-3 4 -3 4 0 3 C0 2.01 0 1.02 0 0 Z " fill="#266582" transform="translate(100,59)"/>
<path d="M0 0 C0.33 0.99 0.66 1.98 1 3 C-4.445 4.98 -4.445 4.98 -10 7 C-9.195625 7.721875 -8.39125 8.44375 -7.5625 9.1875 C-4.97707928 12.02515689 -4.31957187 13.27166147 -4 17 C-4.66 17 -5.32 17 -6 17 C-6.185625 17.70125 -6.37125 18.4025 -6.5625 19.125 C-8.54820026 23.09640051 -11.53933276 25.3073418 -15 28 C-15 24.03869629 -13.65122875 23.17085599 -11 20.3125 C-10.2575 19.50425781 -9.515 18.69601563 -8.75 17.86328125 C-8.1725 17.24839844 -7.595 16.63351563 -7 16 C-8.72154788 12.23511958 -10.99234114 9.84936103 -14 7 C-9.55639631 4.13315891 -4.84419638 2.07909954 0 0 Z " fill="#D46833" transform="translate(143,34)"/>
<path d="M0 0 C0.99 0.33 1.98 0.66 3 1 C3.40863281 1.83917969 3.81726563 2.67835937 4.23828125 3.54296875 C4.81964844 4.35378906 5.40101562 5.16460937 6 6 C9.42360738 6.60624398 9.42360738 6.60624398 13.1875 6.3125 C14.45980469 6.26738281 15.73210937 6.22226563 17.04296875 6.17578125 C18.01878906 6.11777344 18.99460938 6.05976562 20 6 C20.33 4.68 20.66 3.36 21 2 C23.10865385 5.47307692 23.10865385 5.47307692 22.55859375 8.140625 C22.37425781 8.75421875 22.18992188 9.3678125 22 10 C19.75006641 10.02707139 17.50003905 10.04642829 15.25 10.0625 C13.99703125 10.07410156 12.7440625 10.08570312 11.453125 10.09765625 C6.24853481 9.95046761 6.24853481 9.95046761 4 9 C2.875 6 2.875 6 2 3 C1.34 2.67 0.68 2.34 0 2 C0 1.34 0 0.68 0 0 Z " fill="#BC5541" transform="translate(115,115)"/>
<path d="M0 0 C0.99 0 1.98 0 3 0 C5.34801136 6.05539773 5.34801136 6.05539773 3.6875 10.5625 C3.130625 11.696875 2.57375 12.83125 2 14 C1.60235737 15.98821313 1.24544834 17.98732362 1 20 C-0.93418749 18.38732652 -1.90896887 17.50507594 -2.36328125 14.984375 C-2.24910135 9.96045953 -1.59001124 5.77003372 0 1 C0 0.67 0 0.34 0 0 Z " fill="#E35032" transform="translate(112,86)"/>
<path d="M0 0 C2.31 0.33 4.62 0.66 7 1 C7 1.66 7 2.32 7 3 C7.66 3 8.32 3 9 3 C9 3.66 9 4.32 9 5 C8.01 5.33 7.02 5.66 6 6 C6 6.66 6 7.32 6 8 C6.66 8 7.32 8 8 8 C7.67 8.66 7.34 9.32 7 10 C4.4375 10.625 4.4375 10.625 2 11 C-0.32590854 7.36576791 -0.16265833 4.22911669 0 0 Z " fill="#165382" transform="translate(68,149)"/>
<path d="M0 0 C0.99 0 1.98 0 3 0 C3.66 1.65 4.32 3.3 5 5 C4.34 5 3.68 5 3 5 C3 5.99 3 6.98 3 8 C2 9 1 10 0 11 C-0.99373439 13.2603044 -0.99373439 13.2603044 -1.6875 15.6875 C-2.06455078 16.89986328 -2.06455078 16.89986328 -2.44921875 18.13671875 C-2.63097656 18.75160156 -2.81273438 19.36648437 -3 20 C-3.33 20 -3.66 20 -4 20 C-4.34686842 13.64074556 -3.25416339 8.92155874 -1 3 C-0.67 2.01 -0.34 1.02 0 0 Z " fill="#516471" transform="translate(104,64)"/>
<path d="M0 0 C-0.11429397 1.77155654 -0.24183037 3.54226229 -0.375 5.3125 C-0.44460937 6.29863281 -0.51421875 7.28476562 -0.5859375 8.30078125 C-1 11 -1 11 -3 14 C-6.18923033 9.81413519 -7.50423019 7.29441695 -7 2 C-4.35261084 0.5393715 -3.10551666 0 0 0 Z " fill="#EF8D25" transform="translate(161,30)"/>
<path d="M0 0 C-1.66289063 0.59748047 -1.66289063 0.59748047 -3.359375 1.20703125 C-4.82304586 1.74183406 -6.28658043 2.27700997 -7.75 2.8125 C-8.47960937 3.07353516 -9.20921875 3.33457031 -9.9609375 3.60351562 C-15.38777 5.58598388 -15.38777 5.58598388 -20 9 C-20.33 9.99 -20.66 10.98 -21 12 C-22.0725 12.103125 -23.145 12.20625 -24.25 12.3125 C-27.85820872 12.97400493 -29.36395023 13.57483421 -32 16 C-29.41521499 9.36378232 -21.83264426 6.31539656 -15.7109375 3.47265625 C-4.27551284 -1.3268833 -4.27551284 -1.3268833 0 0 Z " fill="#476F8C" transform="translate(72,13)"/>
<path d="M0 0 C0.66 0 1.32 0 2 0 C2.33 8.91 2.66 17.82 3 27 C2.34 27.33 1.68 27.66 1 28 C-2.74137931 8.22413793 -2.74137931 8.22413793 0 0 Z " fill="#1A417D" transform="translate(13,74)"/>
<path d="M0 0 C2.97 0.33 5.94 0.66 9 1 C7.19165572 4.61668855 6.17549603 6.61837798 3 9 C-0.25 8.75 -0.25 8.75 -3 8 C-2.505 7.236875 -2.01 6.47375 -1.5 5.6875 C0.24368308 3.07636249 0.24368308 3.07636249 0 0 Z " fill="#496F78" transform="translate(111,14)"/>
<path d="M0 0 C0.99 0 1.98 0 3 0 C5.125 5.625 5.125 5.625 4 9 C6.64 9.33 9.28 9.66 12 10 C9.08291076 11.98362069 7.87619096 11.9876191 4.25 11.625 C3.1775 11.41875 2.105 11.2125 1 11 C-0.62950412 6.87831311 -1.26264601 4.29299643 0 0 Z " fill="#35637A" transform="translate(82,152)"/>
<path d="M0 0 C0.33 0 0.66 0 1 0 C1 5.61 1 11.22 1 17 C-0.32 16.67 -1.64 16.34 -3 16 C-3.66 16.33 -4.32 16.66 -5 17 C-6.23076923 10.6 -6.23076923 10.6 -5.0625 7.5625 C-4.711875 7.046875 -4.36125 6.53125 -4 6 C-3.01 6.99 -2.02 7.98 -1 9 C-0.67 6.03 -0.34 3.06 0 0 Z " fill="#034D92" transform="translate(21,80)"/>
<path d="M0 0 C0.53229326 1.26607607 1.05044544 2.53810412 1.5625 3.8125 C1.85253906 4.52019531 2.14257812 5.22789063 2.44140625 5.95703125 C3 8 3 8 2 11 C0.68 10.67 -0.64 10.34 -2 10 C-2 8.35 -2 6.7 -2 5 C-3.175625 4.7834375 -3.175625 4.7834375 -4.375 4.5625 C-7 4 -7 4 -9 3 C-5.92807025 0.26939578 -4.09590633 -0.34132553 0 0 Z " fill="#214C7D" transform="translate(90,97)"/>
<path d="M0 0 C0.66 0.33 1.32 0.66 2 1 C-2.95 9.91 -2.95 9.91 -8 19 C-9.19156292 14.23374833 -8.3415946 13.12120649 -6 9 C-7.32 9.33 -8.64 9.66 -10 10 C-10 9.01 -10 8.02 -10 7 C-7.69 7 -5.38 7 -3 7 C-2.690625 6.030625 -2.38125 5.06125 -2.0625 4.0625 C-1 1 -1 1 0 0 Z " fill="#185783" transform="translate(83,79)"/>
<path d="M0 0 C0.99 0.33 1.98 0.66 3 1 C2.9278125 1.69867188 2.855625 2.39734375 2.78125 3.1171875 C2.6884375 4.02726562 2.595625 4.93734375 2.5 5.875 C2.4071875 6.77992187 2.314375 7.68484375 2.21875 8.6171875 C1.96952705 10.93313211 1.96952705 10.93313211 2 13 C0.68 13.33 -0.64 13.66 -2 14 C-1.67 12.02 -1.34 10.04 -1 8 C-1.66 7.67 -2.32 7.34 -3 7 C-3 5.33333333 -3 3.66666667 -3 2 C-2.01 1.34 -1.02 0.68 0 0 Z " fill="#445977" transform="translate(96,89)"/>
<path d="M0 0 C0.66 0 1.32 0 2 0 C0.41332422 3.90285767 -2.13350481 6.33520982 -5.125 9.25 C-6.03507813 10.14203125 -6.94515625 11.0340625 -7.8828125 11.953125 C-8.58148438 12.62859375 -9.28015625 13.3040625 -10 14 C-10.97591583 10.61682513 -10.85856655 8.4342662 -10 5 C-7.69 5 -5.38 5 -3 5 C-2.67 4.01 -2.34 3.02 -2 2 C-1.34 2 -0.68 2 0 2 C0 1.34 0 0.68 0 0 Z " fill="#DB5B30" transform="translate(139,63)"/>
<path d="M0 0 C1.46726798 3.81489674 0.43336419 6.29011622 -1 10 C-1.33 9.34 -1.66 8.68 -2 8 C-5.29148243 9.13499394 -5.9959869 9.99283376 -7.75 13.125 C-8.1625 14.07375 -8.575 15.0225 -9 16 C-9.66 16 -10.32 16 -11 16 C-8.32253045 8.99738734 -5.99038493 4.52606861 0 0 Z " fill="#15668E" transform="translate(95,62)"/>
<path d="M0 0 C-0.1135629 1.64666203 -0.24117381 3.29236082 -0.375 4.9375 C-0.44460937 5.85402344 -0.51421875 6.77054688 -0.5859375 7.71484375 C-0.72257812 8.46894531 -0.85921875 9.22304688 -1 10 C-1.99 10.495 -1.99 10.495 -3 11 C-2.67 8.36 -2.34 5.72 -2 3 C-2.98742187 3.3609375 -3.97484375 3.721875 -4.9921875 4.09375 C-6.28639791 4.56266681 -7.58067206 5.03140769 -8.875 5.5 C-9.85146484 5.85771484 -9.85146484 5.85771484 -10.84765625 6.22265625 C-15.7734375 8 -15.7734375 8 -18 8 C-18 7.34 -18 6.68 -18 6 C-15.37646482 4.99600476 -12.75132205 3.99665555 -10.125 3 C-9.37863281 2.71382812 -8.63226563 2.42765625 -7.86328125 2.1328125 C-2.2265625 0 -2.2265625 0 0 0 Z " fill="#C77543" transform="translate(163,27)"/>
<path d="M0 0 C2.38564077 0.57584432 4.66682784 1.22227595 7 2 C7.04254356 3.99954746 7.04080783 6.00041636 7 8 C6 9 6 9 3.4375 9.0625 C2.633125 9.041875 1.82875 9.02125 1 9 C0 2.25 0 2.25 0 0 Z " fill="#436776" transform="translate(85,152)"/>
<path d="M0 0 C2.28314119 3.42471179 2.13390833 3.99884862 1.5625 7.875 C1.10500879 11.51365105 0.92935656 14.43118852 2 18 C-0.40575607 15.81482901 -1.79535581 13.74080329 -3.1875 10.8125 C-3.53167969 10.09707031 -3.87585938 9.38164063 -4.23046875 8.64453125 C-4.48441406 8.10183594 -4.73835938 7.55914062 -5 7 C-3.68 7.33 -2.36 7.66 -1 8 C-1.020625 7.05125 -1.04125 6.1025 -1.0625 5.125 C-1 2 -1 2 0 0 Z " fill="#365F78" transform="translate(98,68)"/>
<path d="M0 0 C0.66 0.33 1.32 0.66 2 1 C0.02 1.99 0.02 1.99 -2 3 C-1.34 5.97 -0.68 8.94 0 12 C-1.98 11.34 -3.96 10.68 -6 10 C-6 8.02 -6 6.04 -6 4 C-5.01 3.67 -4.02 3.34 -3 3 C-3 2.34 -3 1.68 -3 1 C-2.01 0.67 -1.02 0.34 0 0 Z " fill="#756A59" transform="translate(101,151)"/>
<path d="M0 0 C2.475 0.495 2.475 0.495 5 1 C5 2.98 5 4.96 5 7 C5.99 7.33 6.98 7.66 8 8 C8 8.66 8 9.32 8 10 C7.01 10.33 6.02 10.66 5 11 C5 10.34 5 9.68 5 9 C3.68 9.33 2.36 9.66 1 10 C0.06576355 6.98968256 -0.04449911 6.13349732 1 3 C0.67 2.01 0.34 1.02 0 0 Z " fill="#A06F43" transform="translate(103,151)"/>
<path d="M0 0 C0.66 0.33 1.32 0.66 2 1 C0 7.66666667 -2 14.33333333 -4 21 C-4.66 21 -5.32 21 -6 21 C-2.68831169 2.68831169 -2.68831169 2.68831169 0 0 Z " fill="#866157" transform="translate(108,72)"/>
<path d="M0 0 C3.465 1.98 3.465 1.98 7 4 C7 4.99 7 5.98 7 7 C4.04335481 8.4783226 1.25770263 8.06032783 -2 8 C-1.67 7.236875 -1.34 6.47375 -1 5.6875 C0.17436686 3.00930865 0.17436686 3.00930865 0 0 Z " fill="#AE6E3B" transform="translate(133,23)"/>
<path d="M0 0 C1.32 0 2.64 0 4 0 C4.625 1.875 4.625 1.875 5 4 C4.34 4.66 3.68 5.32 3 6 C3.99 6.33 4.98 6.66 6 7 C5.67 7.66 5.34 8.32 5 9 C3.35 9 1.7 9 0 9 C-0.84454356 5.62182575 -1.10844919 3.32534757 0 0 Z " fill="#8F6C52" transform="translate(129,24)"/>
<path d="M0 0 C0.99 0.495 0.99 0.495 2 1 C1.01 1.495 1.01 1.495 0 2 C0 1.34 0 0.68 0 0 Z M-1 2 C0 5 0 5 0 8 C0.99 8 1.98 8 3 8 C3 8.66 3 9.32 3 10 C1.02 10.33 -0.96 10.66 -3 11 C-3.99 9.35 -4.98 7.7 -6 6 C-4 3 -4 3 -1 2 Z " fill="#E2842D" transform="translate(124,144)"/>
<path d="M0 0 C0.66 0.33 1.32 0.66 2 1 C1.67 2.65 1.34 4.3 1 6 C1.66 6 2.32 6 3 6 C2.67 6.99 2.34 7.98 2 9 C-0.5625 10.1875 -0.5625 10.1875 -3 11 C-3 10.34 -3 9.68 -3 9 C-2.34 8.67 -1.68 8.34 -1 8 C-1 7.34 -1 6.68 -1 6 C-2.32 5.67 -3.64 5.34 -5 5 C-3.35 3.35 -1.7 1.7 0 0 Z " fill="#10467B" transform="translate(87,101)"/>
<path d="M0 0 C0.6875 1.6875 0.6875 1.6875 1 4 C0.05607981 5.69905634 -0.95650161 7.36021682 -2 9 C-2.70808274 11.06457832 -3.35920595 13.13243141 -3.9609375 15.23046875 C-5.44452305 17.7570261 -7.28310942 18.13714387 -10 19 C-8.89835882 16.76955389 -7.79378106 14.54064354 -6.6875 12.3125 C-6.37876953 11.68666016 -6.07003906 11.06082031 -5.75195312 10.41601562 C-3.9761894 6.84579593 -2.10467271 3.38690408 0 0 Z " fill="#28537A" transform="translate(59,89)"/>
<path d="M0 0 C0.66 0 1.32 0 2 0 C2.66 2.64 3.32 5.28 4 8 C3.34 7.67 2.68 7.34 2 7 C2 6.01 2 5.02 2 4 C1.34 4 0.68 4 0 4 C0 4.66 0 5.32 0 6 C-1.65 6.66 -3.3 7.32 -5 8 C-5 10.31 -5 12.62 -5 15 C-5.66 14.67 -6.32 14.34 -7 14 C-7.3125 10.6875 -7.3125 10.6875 -7 7 C-4.625 5.3125 -4.625 5.3125 -2 4 C-0.67206394 1.93299345 -0.67206394 1.93299345 0 0 Z " fill="#D57633" transform="translate(162,63)"/>
<path d="M0 0 C5.77759884 -0.12036664 11.27959989 0.1679418 17 1 C17 1.99 17 2.98 17 4 C11.39 3.34 5.78 2.68 0 2 C0 1.34 0 0.68 0 0 Z " fill="#50718F" transform="translate(86,9)"/>
<path d="M0 0 C0.33 0 0.66 0 1 0 C1.05429278 2.70860665 1.09381211 5.41610901 1.125 8.125 C1.15013672 9.26582031 1.15013672 9.26582031 1.17578125 10.4296875 C1.21546246 15.03270731 0.75907577 18.66464004 -1 23 C-1.66 22.67 -2.32 22.34 -3 22 C-2.06666667 16.26666667 -2.06666667 16.26666667 -1.4375 13.75 C-0.86982399 10.18175079 -0.97714972 6.71542449 -1.0625 3.109375 C-1 1 -1 1 0 0 Z " fill="#C86D3E" transform="translate(157,77)"/>
<path d="M0 0 C0.66 0 1.32 0 2 0 C2.27429625 5.39449293 2.36055646 8.51925805 -1 13 C-1.99 12.67 -2.98 12.34 -4 12 C-3.52309796 10.37433394 -3.04340334 8.74948689 -2.5625 7.125 C-2.29566406 6.22007813 -2.02882813 5.31515625 -1.75390625 4.3828125 C-1 2 -1 2 0 0 Z " fill="#265590" transform="translate(17,59)"/>
<path d="M0 0 C0.99 0 1.98 0 3 0 C3 1.32 3 2.64 3 4 C2.34 4 1.68 4 1 4 C1.33 4.99 1.66 5.98 2 7 C1.67 7.66 1.34 8.32 1 9 C-0.98 8.34 -2.96 7.68 -5 7 C-4.34 6.67 -3.68 6.34 -3 6 C-2.65657551 4.66923011 -2.32380126 3.33568021 -2 2 C-1.34 1.34 -0.68 0.68 0 0 Z " fill="#5F736B" transform="translate(119,16)"/>
<path d="M0 0 C-1.98 1.32 -3.96 2.64 -6 4 C-4.68 5.65 -3.36 7.3 -2 9 C-5.79588866 8.45773019 -7.47211993 6.79872437 -10 4 C-9.67 3.01 -9.34 2.02 -9 1 C-3.79245283 -1.26415094 -3.79245283 -1.26415094 0 0 Z " fill="#1D3A62" transform="translate(51,130)"/>
<path d="M0 0 C1.4540625 0.0309375 1.4540625 0.0309375 2.9375 0.0625 C3.2675 1.0525 3.5975 2.0425 3.9375 3.0625 C2.9475 3.5575 2.9475 3.5575 1.9375 4.0625 C1.9375 3.4025 1.9375 2.7425 1.9375 2.0625 C0.01440578 2.10205898 0.01440578 2.10205898 -2.0625 3.0625 C-3.84629415 6.04602894 -3.84629415 6.04602894 -5.0625 9.0625 C-6.0525 9.0625 -7.0425 9.0625 -8.0625 9.0625 C-8.0625 8.4025 -8.0625 7.7425 -8.0625 7.0625 C-7.4025 7.0625 -6.7425 7.0625 -6.0625 7.0625 C-5.753125 6.093125 -5.44375 5.12375 -5.125 4.125 C-3.72021812 0.07592282 -3.72021812 0.07592282 0 0 Z " fill="#366689" transform="translate(90.0625,37.9375)"/>
<path d="M0 0 C1.98 0.495 1.98 0.495 4 1 C4.33 3.64 4.66 6.28 5 9 C3.35 9 1.7 9 0 9 C-1.10844919 5.67465243 -0.84454356 3.37817425 0 0 Z " fill="#286281" transform="translate(78,154)"/>
<path d="M0 0 C0.99 0.33 1.98 0.66 3 1 C3.20086443 4.71599191 3.1519437 5.77208445 1 9 C-0.65 8.67 -2.3 8.34 -4 8 C-3.01 7.67 -2.02 7.34 -1 7 C-1 6.34 -1 5.68 -1 5 C-1.66 4.67 -2.32 4.34 -3 4 C-2.34 3.67 -1.68 3.34 -1 3 C-1.33 2.34 -1.66 1.68 -2 1 C-1.34 0.67 -0.68 0.34 0 0 Z " fill="#226A88" transform="translate(103,12)"/>
<path d="M0 0 C2.31 0.33 4.62 0.66 7 1 C7.33 2.65 7.66 4.3 8 6 C6.081875 5.8453125 6.081875 5.8453125 4.125 5.6875 C3.04605469 5.60048828 3.04605469 5.60048828 1.9453125 5.51171875 C0 5 0 5 -2 2 C-1.34 2 -0.68 2 0 2 C0 1.34 0 0.68 0 0 Z " fill="#084F91" transform="translate(61,105)"/>
<path d="M0 0 C1.6875 1.4375 1.6875 1.4375 3 4 C2.35087445 7.14284955 1.23221253 10.04268993 0 13 C-2.80541099 8.79188352 -1.85569482 6.90079759 -1 2 C-0.67 1.34 -0.34 0.68 0 0 Z " fill="#156990" transform="translate(96,49)"/>
<path d="M0 0 C0.99 0.33 1.98 0.66 3 1 C2.48050781 1.43570313 1.96101563 1.87140625 1.42578125 2.3203125 C-2.83222666 5.95654106 -6.55472652 9.58574336 -10 14 C-10.33 13.34 -10.66 12.68 -11 12 C-9.92492371 10.70145279 -8.83956264 9.41141639 -7.75 8.125 C-7.14671875 7.40570313 -6.5434375 6.68640625 -5.921875 5.9453125 C-4.02912366 4.02947882 -2.46342273 3.03550955 0 2 C0 1.34 0 0.68 0 0 Z " fill="#23517E" transform="translate(46,33)"/>
<path d="M0 0 C0.33 0.99 0.66 1.98 1 3 C0.21753906 3.25394531 -0.56492188 3.50789063 -1.37109375 3.76953125 C-2.38300781 4.11371094 -3.39492187 4.45789062 -4.4375 4.8125 C-5.44683594 5.14894531 -6.45617187 5.48539063 -7.49609375 5.83203125 C-8.32238281 6.21746094 -9.14867187 6.60289063 -10 7 C-10.33 7.99 -10.66 8.98 -11 10 C-11.99 9.01 -12.98 8.02 -14 7 C-9.55639631 4.13315891 -4.84419638 2.07909954 0 0 Z " fill="#C4693A" transform="translate(143,34)"/>
<path d="M0 0 C0.53625 0.680625 1.0725 1.36125 1.625 2.0625 C3.94790138 4.93556223 6.36356826 7.69794378 8.828125 10.44921875 C10 12 10 12 10 14 C6.11002809 12.50253294 4.53051948 10.29577922 2.25 6.875 C1.63640625 5.96492187 1.0228125 5.05484375 0.390625 4.1171875 C-0.06828125 3.41851562 -0.5271875 2.71984375 -1 2 C-0.67 1.34 -0.34 0.68 0 0 Z " fill="#1F3A5F" transform="translate(24,123)"/>
<path d="M0 0 C0.66 0.33 1.32 0.66 2 1 C-0.00677773 4.0101666 -0.84106264 4.70466441 -3.9375 6.25 C-4.97197266 6.78367187 -4.97197266 6.78367187 -6.02734375 7.328125 C-8 8 -8 8 -11 7 C-11 6.01 -11 5.02 -11 4 C-9.68 4 -8.36 4 -7 4 C-5.12043765 3.12170046 -5.12043765 3.12170046 -3.375 1.9375 C-2.26125 1.298125 -1.1475 0.65875 0 0 Z " fill="#214D77" transform="translate(79,101)"/>
<path d="M0 0 C1.26776456 3.80329367 0.3809651 5.31742641 -1 9 C-1.33 9.99 -1.66 10.98 -2 12 C-2.99 11.01 -3.98 10.02 -5 9 C-4.67 8.01 -4.34 7.02 -4 6 C-3.34 6 -2.68 6 -2 6 C-2.7763932 2.9254644 -2.7763932 2.9254644 -5 1 C-3.35 0.67 -1.7 0.34 0 0 Z " fill="#D67A30" transform="translate(118,147)"/>
<path d="M0 0 C2 2 2 2 2.1953125 4.6015625 C2.17210938 5.59929687 2.14890625 6.59703125 2.125 7.625 C2.10695313 8.62789062 2.08890625 9.63078125 2.0703125 10.6640625 C2.03550781 11.82035156 2.03550781 11.82035156 2 13 C0.68 13.33 -0.64 13.66 -2 14 C-2.18867925 4.37735849 -2.18867925 4.37735849 0 0 Z " fill="#5C5B68" transform="translate(99,87)"/>
<path d="M0 0 C-2.24845077 2.24845077 -3.98898917 2.92379464 -6.9375 4.0625 C-8.25041016 4.57490234 -8.25041016 4.57490234 -9.58984375 5.09765625 C-11.38010907 5.76791766 -13.18647574 6.39549191 -15 7 C-14 4 -14 4 -12.36328125 2.83203125 C-8.06030271 0.69283621 -4.92614603 -0.4926146 0 0 Z " fill="#255079" transform="translate(69,23)"/>
<path d="M0 0 C0.66 0.33 1.32 0.66 2 1 C-0.31 5.29 -2.62 9.58 -5 14 C-6.12837492 9.48650033 -5.87706931 9.07631749 -3.625 5.3125 C-3.16351562 4.52488281 -2.70203125 3.73726562 -2.2265625 2.92578125 C-1 1 -1 1 0 0 Z " fill="#214D7A" transform="translate(33,48)"/>
<path d="M0 0 C0.99 0 1.98 0 3 0 C3 0.66 3 1.32 3 2 C4.65 2.33 6.3 2.66 8 3 C8 3.66 8 4.32 8 5 C9.65 5.33 11.3 5.66 13 6 C13 6.66 13 7.32 13 8 C8.77096401 6.69101267 4.83550432 5.22994437 1 3 C0.67 2.01 0.34 1.02 0 0 Z " fill="#2B4678" transform="translate(43,147)"/>
<path d="M0 0 C0.99 0.495 0.99 0.495 2 1 C2.4140625 3.72265625 2.4140625 3.72265625 2.625 7.0625 C2.69976562 8.16722656 2.77453125 9.27195312 2.8515625 10.41015625 C2.90054687 11.26480469 2.94953125 12.11945313 3 13 C2.01 13.495 2.01 13.495 1 14 C0.04738513 9.23692563 -0.08333357 4.8333472 0 0 Z " fill="#264775" transform="translate(13,88)"/>
<path d="M0 0 C0.66 0 1.32 0 2 0 C2.08159574 4.16138263 1.98248524 7.9472484 1 12 C0.34 12 -0.32 12 -1 12 C-1.02712066 10.56260487 -1.04645067 9.12506137 -1.0625 7.6875 C-1.07410156 6.88699219 -1.08570312 6.08648437 -1.09765625 5.26171875 C-1 3 -1 3 0 0 Z " fill="#366B82" transform="translate(100,59)"/>
<path d="M0 0 C4 1.33333333 8 2.66666667 12 4 C8.45332822 5.25127906 6.27746562 4.72285053 2.75 3.5625 C1.85796875 3.27503906 0.9659375 2.98757812 0.046875 2.69140625 C-0.62859375 2.46324219 -1.3040625 2.23507813 -2 2 C-1.34 1.34 -0.68 0.68 0 0 Z " fill="#284D73" transform="translate(65,157)"/>
<path d="M0 0 C0.33 0.99 0.66 1.98 1 3 C-0.12073862 3.83905565 -1.24674547 4.67107831 -2.375 5.5 C-3.00148437 5.9640625 -3.62796875 6.428125 -4.2734375 6.90625 C-6 8 -6 8 -8 8 C-8.33 8.66 -8.66 9.32 -9 10 C-9.33 9.01 -9.66 8.02 -10 7 C-9.36191406 6.57847656 -8.72382813 6.15695313 -8.06640625 5.72265625 C-7.24011719 5.17480469 -6.41382813 4.62695312 -5.5625 4.0625 C-4.73878906 3.51722656 -3.91507813 2.97195312 -3.06640625 2.41015625 C-1.10014075 1.16197019 -1.10014075 1.16197019 0 0 Z " fill="#CC763C" transform="translate(137,144)"/>
<path d="M0 0 C0.96706319 3.00864103 1.27677226 5.05360248 0 8 C-2.0625 9.25 -2.0625 9.25 -4 10 C-3.43454163 6.04179141 -2.19097652 3.3340947 0 0 Z " fill="#225596" transform="translate(22,48)"/>
<path d="M0 0 C-0.33 0.99 -0.66 1.98 -1 3 C-2.0725 3.103125 -3.145 3.20625 -4.25 3.3125 C-7.85820872 3.97400493 -9.36395023 4.57483421 -12 7 C-10.60440273 3.6273066 -9.1078412 1.91954898 -6 0 C-2.48275862 -1.24137931 -2.48275862 -1.24137931 0 0 Z " fill="#275D8A" transform="translate(52,22)"/>
<path d="M0 0 C1.134375 0.020625 2.26875 0.04125 3.4375 0.0625 C4.0975 1.3825 4.7575 2.7025 5.4375 4.0625 C-1.1875 3.3125 -1.1875 3.3125 -4.5625 1.0625 C-3.5625 0.0625 -3.5625 0.0625 0 0 Z " fill="#164076" transform="translate(59.5625,153.9375)"/>
<path d="M0 0 C8.57142857 -0.28571429 8.57142857 -0.28571429 12 2 C8.17907588 3.37553268 4.91765889 2.81309902 1 2 C0.67 1.34 0.34 0.68 0 0 Z " fill="#2D4178" transform="translate(82,161)"/>
<path d="M0 0 C0.66666667 2.66666667 1.33333333 5.33333333 2 8 C-0.475 9.485 -0.475 9.485 -3 11 C-3 10.01 -3 9.02 -3 8 C-2.34 8 -1.68 8 -1 8 C-1.020625 7.05125 -1.04125 6.1025 -1.0625 5.125 C-1 2 -1 2 0 0 Z " fill="#145F90" transform="translate(72,65)"/>
<path d="M0 0 C1 2 1 2 0.25 4.4375 C-0.94131051 6.87968654 -1.88488303 8.3255324 -4 10 C-4.66 10 -5.32 10 -6 10 C-4.6302836 6.00499382 -2.74277578 3.19990508 0 0 Z " fill="#2D5C8F" transform="translate(29,38)"/>
<path d="M0 0 C0.66 0.33 1.32 0.66 2 1 C1.34 3.31 0.68 5.62 0 8 C-1.32 7.67 -2.64 7.34 -4 7 C-2.68 4.69 -1.36 2.38 0 0 Z " fill="#143F70" transform="translate(49,108)"/>
<path d="M0 0 C0.66 0.33 1.32 0.66 2 1 C0.02 4.63 -1.96 8.26 -4 12 C-5 9 -5 9 -4.2578125 6.9921875 C-3.88398437 6.29351562 -3.51015625 5.59484375 -3.125 4.875 C-2.75632812 4.17117187 -2.38765625 3.46734375 -2.0078125 2.7421875 C-1 1 -1 1 0 0 Z " fill="#275177" transform="translate(83,79)"/>
<path d="M0 0 C1.43861294 0.08746284 2.87597508 0.19565348 4.3125 0.3125 C5.11300781 0.37050781 5.91351563 0.42851562 6.73828125 0.48828125 C9.36272334 1.08206694 10.30820672 1.95780294 12 4 C10 5 10 5 7.6171875 4.22265625 C6.71226563 3.83980469 5.80734375 3.45695312 4.875 3.0625 C3.50988281 2.49208984 3.50988281 2.49208984 2.1171875 1.91015625 C1.41851562 1.60980469 0.71984375 1.30945313 0 1 C0 0.67 0 0.34 0 0 Z " fill="#3A497A" transform="translate(107,22)"/>
<path d="M0 0 C0.99 0 1.98 0 3 0 C1.61990379 3.33523252 0.15049348 5.18607951 -3 7 C-3.99 6.67 -4.98 6.34 -6 6 C-4 4 -2 2 0 0 Z " fill="#B04957" transform="translate(126,61)"/>
<path d="M0 0 C1.32 0 2.64 0 4 0 C4 1.98 4 3.96 4 6 C2.68 6.33 1.36 6.66 0 7 C0 4.69 0 2.38 0 0 Z " fill="#526872" transform="translate(88,154)"/>
<path d="M0 0 C0.66 0 1.32 0 2 0 C3.76462683 3.08809695 4 4.23312136 4 8 C3.34 8 2.68 8 2 8 C0.23537317 4.91190305 0 3.76687864 0 0 Z " fill="#BF5A3E" transform="translate(111,106)"/>
<path d="M0 0 C0 0.66 0 1.32 0 2 C-3 4 -3 4 -7 4 C-6.67 3.01 -6.34 2.02 -6 1 C-4 0 -4 0 0 0 Z " fill="#0E4F89" transform="translate(87,100)"/>
<path d="M0 0 C0.66 0 1.32 0 2 0 C0.33333333 3.33333333 -1.33333333 6.66666667 -3 10 C-3.66 10 -4.32 10 -5 10 C-3.66749209 6.4124787 -2.169283 3.1635377 0 0 Z " fill="#1E4B74" transform="translate(89,68)"/>
<path d="M0 0 C3 1 3 1 4.6875 3.9375 C6 7 6 7 6 9 C5.34 9 4.68 9 4 9 C3.3309224 7.68872739 2.66480194 6.3759455 2 5.0625 C1.62875 4.33160156 1.2575 3.60070313 0.875 2.84765625 C0 1 0 1 0 0 Z " fill="#395C72" transform="translate(100,55)"/>
<path d="M0 0 C0.99424641 2.98273923 1.31845551 4.89505874 1 8 C0.01 8.66 -0.98 9.32 -2 10 C-2.17942163 6.05272412 -2.09350689 3.4019487 0 0 Z " fill="#DF6A2E" transform="translate(156,98)"/>
</svg>
